<svg xmlns="http://www.w3.org/2000/svg" xmlns:svg="http://www.w3.org/2000/svg" id="svg8" width="16" height="16" version="1.1"><defs id="defs12"><marker id="DistanceStart" orient="auto" refX="0" refY="0" style="overflow:visible"><g id="g2300"><path id="path2306" d="M 0,0 L 2,0" style="fill:none;stroke:context-fill;stroke-width:1.15;stroke-linecap:square"/><path id="path2302" d="M 0,0 L 13,4 L 9,0 13,-4 L 0,0 z" style="fill:context-stroke;fill-rule:evenodd;stroke:none"/><path id="path2304" d="M 0,-4 L 0,40" style="fill:none;stroke:context-stroke;stroke-width:1;stroke-linecap:square"/></g></marker></defs><g id="g6" transform="matrix(0.61227989,-0.61227989,0.61227989,0.61227989,0.44658442,85.063594)"><path id="path2" d="m 69.5,-61.5 c -1.9217,0 -3.5,1.5783 -3.5,3.5 0,0.17425 0.0062,0.33232 0.03125,0.5 h 2.0625 c -0.053,-0.156 -0.094,-0.323 -0.094,-0.5 0,-0.8483 0.6517,-1.5 1.5,-1.5 h 5 c 0.8483,0 1.5,0.6517 1.5,1.5 0,0.8483 -0.6517,1.5 -1.5,1.5 h -1.6875 c -0.28733,0.79501 -0.78612,1.4793 -1.4375,2 h 3.125 c 1.9217,0 3.5,-1.5783 3.5,-3.5 0,-1.9217 -1.5783,-3.5 -3.5,-3.5 h -5 z"/><path id="path4" d="m 68.5,-54.5 c 1.9217,0 3.5,-1.5783 3.5,-3.5 0,-0.17425 -0.0062,-0.33232 -0.03125,-0.5 h -2.0625 c 0.053,0.156 0.094,0.323 0.094,0.5 0,0.8483 -0.6517,1.5 -1.5,1.5 h -5 c -0.8483,0 -1.5,-0.6517 -1.5,-1.5 0,-0.8483 0.6517,-1.5 1.5,-1.5 h 1.6875 c 0.28733,-0.79501 0.78612,-1.4793 1.4375,-2 h -3.125 c -1.9217,0 -3.5,1.5783 -3.5,3.5 0,1.9217 1.5783,3.5 3.5,3.5 h 5 z"/></g><g id="g4" transform="matrix(-0.36907198,-0.37644722,0.36907198,-0.37644722,-371.47063,408.12785)"><rect style="fill:#000;stroke-width:1.79655" id="rect348" width="3.129" height="13.257" x="732.617" y="-751.177" transform="rotate(135)"/><rect style="fill:#000;stroke-width:1.81378;paint-order:stroke fill markers" id="rect348-6" width="3.127" height="13.521" x="-746.125" y="-740.873" transform="rotate(-135)"/></g></svg>